<svg version="1.1" xmlns="http://www.w3.org/2000/svg" viewBox="0 0 114.37137652317597 132.01549759621594" width="343.1141295695279" height="396.0464927886478">
  <!-- svg-source:excalidraw -->
  
  <defs>
    <style>
      @font-face {
        font-family: "Virgil";
        src: url("https://excalidraw.com/Virgil.woff2");
      }
      @font-face {
        font-family: "Cascadia";
        src: url("https://excalidraw.com/Cascadia.woff2");
      }
    </style>
  </defs>
  <g stroke-linecap="round"><g transform="translate(58.869486463498106 18.945640504366793) rotate(353.44281177326627 -2.017144545176052 37.494891809515025)"><path d="M0 0 C-6.02 1.55, -30.19 -2.06, -36.12 9.29 C-42.06 20.64, -46.62 58.49, -35.61 68.12 C-24.6 77.75, 18.32 77.15, 29.93 67.09 C41.54 57.02, 39.05 18.92, 34.06 7.74 C29.07 -3.44, 5.68 1.29, 0 0 M0 0 C-6.02 1.55, -30.19 -2.06, -36.12 9.29 C-42.06 20.64, -46.62 58.49, -35.61 68.12 C-24.6 77.75, 18.32 77.15, 29.93 67.09 C41.54 57.02, 39.05 18.92, 34.06 7.74 C29.07 -3.44, 5.68 1.29, 0 0" stroke="#000000" stroke-width="1" fill="none"></path></g></g><g stroke-linecap="round"><g transform="translate(59.289874531980786 12.219188067260575) rotate(353.44281177326627 -2.3655470555936517 43.97103377242934)"><path d="M0 0 C-7.06 1.82, -35.4 -2.42, -42.36 10.89 C-49.32 24.21, -54.67 68.59, -41.76 79.89 C-28.85 91.18, 21.48 90.48, 35.1 78.68 C48.72 66.87, 45.79 22.19, 39.94 9.08 C34.09 -4.03, 6.66 1.51, 0 0 M0 0 C-7.06 1.82, -35.4 -2.42, -42.36 10.89 C-49.32 24.21, -54.67 68.59, -41.76 79.89 C-28.85 91.18, 21.48 90.48, 35.1 78.68 C48.72 66.87, 45.79 22.19, 39.94 9.08 C34.09 -4.03, 6.66 1.51, 0 0" stroke="#000000" stroke-width="1" fill="none"></path></g></g><g stroke-linecap="round" transform="translate(27.527382639893403 93.83022498722517) rotate(339.67493259307446 2.064234903921715 2.064234903921715)"><path d="M4.13 2.06 C4.13 2.18, 4.12 2.31, 4.1 2.42 C4.08 2.54, 4.04 2.66, 4 2.77 C3.96 2.88, 3.91 2.99, 3.85 3.1 C3.79 3.2, 3.72 3.3, 3.65 3.39 C3.57 3.48, 3.48 3.57, 3.39 3.65 C3.3 3.72, 3.2 3.79, 3.1 3.85 C2.99 3.91, 2.88 3.96, 2.77 4 C2.66 4.04, 2.54 4.08, 2.42 4.1 C2.31 4.12, 2.18 4.13, 2.06 4.13 C1.94 4.13, 1.82 4.12, 1.71 4.1 C1.59 4.08, 1.47 4.04, 1.36 4 C1.25 3.96, 1.14 3.91, 1.03 3.85 C0.93 3.79, 0.83 3.72, 0.74 3.65 C0.65 3.57, 0.56 3.48, 0.48 3.39 C0.41 3.3, 0.34 3.2, 0.28 3.1 C0.22 2.99, 0.17 2.88, 0.12 2.77 C0.08 2.66, 0.05 2.54, 0.03 2.42 C0.01 2.31, 0 2.18, 0 2.06 C0 1.94, 0.01 1.82, 0.03 1.71 C0.05 1.59, 0.08 1.47, 0.12 1.36 C0.17 1.25, 0.22 1.14, 0.28 1.03 C0.34 0.93, 0.41 0.83, 0.48 0.74 C0.56 0.65, 0.65 0.56, 0.74 0.48 C0.83 0.41, 0.93 0.34, 1.03 0.28 C1.14 0.22, 1.25 0.17, 1.36 0.12 C1.47 0.08, 1.59 0.05, 1.71 0.03 C1.82 0.01, 1.94 0, 2.06 0 C2.18 0, 2.31 0.01, 2.42 0.03 C2.54 0.05, 2.66 0.08, 2.77 0.12 C2.88 0.17, 2.99 0.22, 3.1 0.28 C3.2 0.34, 3.3 0.41, 3.39 0.48 C3.48 0.56, 3.57 0.65, 3.65 0.74 C3.72 0.83, 3.79 0.93, 3.85 1.03 C3.91 1.14, 3.96 1.25, 4 1.36 C4.04 1.47, 4.08 1.59, 4.1 1.71 C4.12 1.82, 4.12 2, 4.13 2.06 C4.13 2.12, 4.13 2, 4.13 2.06" stroke="#000000" stroke-width="1" fill="none"></path></g><g stroke-linecap="round" transform="translate(32.958234620368785 95.12053114444552) rotate(339.67493259307446 2.064234903921715 2.064234903921715)"><path d="M4.13 2.06 C4.13 2.18, 4.12 2.31, 4.1 2.42 C4.08 2.54, 4.04 2.66, 4 2.77 C3.96 2.88, 3.91 2.99, 3.85 3.1 C3.79 3.2, 3.72 3.3, 3.65 3.39 C3.57 3.48, 3.48 3.57, 3.39 3.65 C3.3 3.72, 3.2 3.79, 3.1 3.85 C2.99 3.91, 2.88 3.96, 2.77 4 C2.66 4.04, 2.54 4.08, 2.42 4.1 C2.31 4.12, 2.18 4.13, 2.06 4.13 C1.94 4.13, 1.82 4.12, 1.71 4.1 C1.59 4.08, 1.47 4.04, 1.36 4 C1.25 3.96, 1.14 3.91, 1.03 3.85 C0.93 3.79, 0.83 3.72, 0.74 3.65 C0.65 3.57, 0.56 3.48, 0.48 3.39 C0.41 3.3, 0.34 3.2, 0.28 3.1 C0.22 2.99, 0.17 2.88, 0.12 2.77 C0.08 2.66, 0.05 2.54, 0.03 2.42 C0.01 2.31, 0 2.18, 0 2.06 C0 1.94, 0.01 1.82, 0.03 1.71 C0.05 1.59, 0.08 1.47, 0.12 1.36 C0.17 1.25, 0.22 1.14, 0.28 1.03 C0.34 0.93, 0.41 0.83, 0.48 0.74 C0.56 0.65, 0.65 0.56, 0.74 0.48 C0.83 0.41, 0.93 0.34, 1.03 0.28 C1.14 0.22, 1.25 0.17, 1.36 0.12 C1.47 0.08, 1.59 0.05, 1.71 0.03 C1.82 0.01, 1.94 0, 2.06 0 C2.18 0, 2.31 0.01, 2.42 0.03 C2.54 0.05, 2.66 0.08, 2.77 0.12 C2.88 0.17, 2.99 0.22, 3.1 0.28 C3.2 0.34, 3.3 0.41, 3.39 0.48 C3.48 0.56, 3.57 0.65, 3.65 0.74 C3.72 0.83, 3.79 0.93, 3.85 1.03 C3.91 1.14, 3.96 1.25, 4 1.36 C4.04 1.47, 4.08 1.59, 4.1 1.71 C4.12 1.82, 4.12 2, 4.13 2.06 C4.13 2.12, 4.13 2, 4.13 2.06" stroke="#000000" stroke-width="1" fill="none"></path></g><g stroke-linecap="round" transform="translate(38.99843956325094 95.08448069934866) rotate(339.67493259307446 2.064234903921715 2.064234903921715)"><path d="M4.13 2.06 C4.13 2.18, 4.12 2.31, 4.1 2.42 C4.08 2.54, 4.04 2.66, 4 2.77 C3.96 2.88, 3.91 2.99, 3.85 3.1 C3.79 3.2, 3.72 3.3, 3.65 3.39 C3.57 3.48, 3.48 3.57, 3.39 3.65 C3.3 3.72, 3.2 3.79, 3.1 3.85 C2.99 3.91, 2.88 3.96, 2.77 4 C2.66 4.04, 2.54 4.08, 2.42 4.1 C2.31 4.12, 2.18 4.13, 2.06 4.13 C1.94 4.13, 1.82 4.12, 1.71 4.1 C1.59 4.08, 1.47 4.04, 1.36 4 C1.25 3.96, 1.14 3.91, 1.03 3.85 C0.93 3.79, 0.83 3.72, 0.74 3.65 C0.65 3.57, 0.56 3.48, 0.48 3.39 C0.41 3.3, 0.34 3.2, 0.28 3.1 C0.22 2.99, 0.17 2.88, 0.12 2.77 C0.08 2.66, 0.05 2.54, 0.03 2.42 C0.01 2.31, 0 2.18, 0 2.06 C0 1.94, 0.01 1.82, 0.03 1.71 C0.05 1.59, 0.08 1.47, 0.12 1.36 C0.17 1.25, 0.22 1.14, 0.28 1.03 C0.34 0.93, 0.41 0.83, 0.48 0.74 C0.56 0.65, 0.65 0.56, 0.74 0.48 C0.83 0.41, 0.93 0.34, 1.03 0.28 C1.14 0.22, 1.25 0.17, 1.36 0.12 C1.47 0.08, 1.59 0.05, 1.71 0.03 C1.82 0.01, 1.94 0, 2.06 0 C2.18 0, 2.31 0.01, 2.42 0.03 C2.54 0.05, 2.66 0.08, 2.77 0.12 C2.88 0.17, 2.99 0.22, 3.1 0.28 C3.2 0.34, 3.3 0.41, 3.39 0.48 C3.48 0.56, 3.57 0.65, 3.65 0.74 C3.72 0.83, 3.79 0.93, 3.85 1.03 C3.91 1.14, 3.96 1.25, 4 1.36 C4.04 1.47, 4.08 1.59, 4.1 1.71 C4.12 1.82, 4.12 2, 4.13 2.06 C4.13 2.12, 4.13 2, 4.13 2.06" stroke="#000000" stroke-width="1" fill="none"></path></g><g stroke-linecap="round" transform="translate(82.39092941059516 88.91734821200544) rotate(339.67493259307446 2.064234903921715 2.064234903921715)"><path d="M4.13 2.06 C4.13 2.18, 4.12 2.31, 4.1 2.42 C4.08 2.54, 4.04 2.66, 4 2.77 C3.96 2.88, 3.91 2.99, 3.85 3.1 C3.79 3.2, 3.72 3.3, 3.65 3.39 C3.57 3.48, 3.48 3.57, 3.39 3.65 C3.3 3.72, 3.2 3.79, 3.1 3.85 C2.99 3.91, 2.88 3.96, 2.77 4 C2.66 4.04, 2.54 4.08, 2.42 4.1 C2.31 4.12, 2.18 4.13, 2.06 4.13 C1.94 4.13, 1.82 4.12, 1.71 4.1 C1.59 4.08, 1.47 4.04, 1.36 4 C1.25 3.96, 1.14 3.91, 1.03 3.85 C0.93 3.79, 0.83 3.72, 0.74 3.65 C0.65 3.57, 0.56 3.48, 0.48 3.39 C0.41 3.3, 0.34 3.2, 0.28 3.1 C0.22 2.99, 0.17 2.88, 0.12 2.77 C0.08 2.66, 0.05 2.54, 0.03 2.42 C0.01 2.31, 0 2.18, 0 2.06 C0 1.94, 0.01 1.82, 0.03 1.71 C0.05 1.59, 0.08 1.47, 0.12 1.36 C0.17 1.25, 0.22 1.14, 0.28 1.03 C0.34 0.93, 0.41 0.83, 0.48 0.74 C0.56 0.65, 0.65 0.56, 0.74 0.48 C0.83 0.41, 0.93 0.34, 1.03 0.28 C1.14 0.22, 1.25 0.17, 1.36 0.12 C1.47 0.08, 1.59 0.05, 1.71 0.03 C1.82 0.01, 1.94 0, 2.06 0 C2.18 0, 2.31 0.01, 2.42 0.03 C2.54 0.05, 2.66 0.08, 2.77 0.12 C2.88 0.17, 2.99 0.22, 3.1 0.28 C3.2 0.34, 3.3 0.41, 3.39 0.48 C3.48 0.56, 3.57 0.65, 3.65 0.74 C3.72 0.83, 3.79 0.93, 3.85 1.03 C3.91 1.14, 3.96 1.25, 4 1.36 C4.04 1.47, 4.08 1.59, 4.1 1.71 C4.12 1.82, 4.12 2, 4.13 2.06 C4.13 2.12, 4.13 2, 4.13 2.06" stroke="#000000" stroke-width="1" fill="none"></path></g><g stroke-linecap="round"><g transform="translate(46.9312825614079 70.8972262852808) rotate(339.67493259307446 11.095262608579105 5.934675348774874)"><path d="M0 0 C1.29 1.98, 4.04 11.27, 7.74 11.87 C11.44 12.47, 19.78 4.99, 22.19 3.61 M0 0 C1.29 1.98, 4.04 11.27, 7.74 11.87 C11.44 12.47, 19.78 4.99, 22.19 3.61" stroke="#000000" stroke-width="1" fill="none"></path></g></g><g stroke-linecap="round" transform="translate(30.670427838690557 31.081525004737614) rotate(360.747659213025 5.676645985784489 14.70767369044205)"><path d="M11.35 14.71 C11.35 15.56, 11.32 16.42, 11.27 17.26 C11.21 18.1, 11.12 18.94, 11.01 19.74 C10.9 20.54, 10.76 21.32, 10.59 22.06 C10.43 22.8, 10.24 23.51, 10.03 24.16 C9.81 24.81, 9.58 25.43, 9.33 25.97 C9.07 26.52, 8.8 27.02, 8.51 27.44 C8.23 27.87, 7.93 28.24, 7.62 28.53 C7.31 28.82, 6.99 29.04, 6.66 29.19 C6.34 29.34, 6.01 29.42, 5.68 29.42 C5.35 29.42, 5.01 29.34, 4.69 29.19 C4.37 29.04, 4.04 28.82, 3.74 28.53 C3.43 28.24, 3.12 27.87, 2.84 27.44 C2.55 27.02, 2.28 26.52, 2.03 25.97 C1.78 25.43, 1.54 24.81, 1.33 24.16 C1.12 23.51, 0.92 22.8, 0.76 22.06 C0.6 21.32, 0.45 20.54, 0.34 19.74 C0.23 18.94, 0.14 18.1, 0.09 17.26 C0.03 16.42, 0 15.56, 0 14.71 C0 13.86, 0.03 12.99, 0.09 12.15 C0.14 11.32, 0.23 10.48, 0.34 9.68 C0.45 8.88, 0.6 8.09, 0.76 7.35 C0.92 6.62, 1.12 5.91, 1.33 5.25 C1.54 4.6, 1.78 3.99, 2.03 3.44 C2.28 2.89, 2.55 2.4, 2.84 1.97 C3.12 1.54, 3.43 1.18, 3.74 0.89 C4.04 0.6, 4.37 0.37, 4.69 0.22 C5.01 0.08, 5.35 0, 5.68 0 C6.01 0, 6.34 0.08, 6.66 0.22 C6.99 0.37, 7.31 0.6, 7.62 0.89 C7.93 1.18, 8.23 1.54, 8.51 1.97 C8.8 2.4, 9.07 2.89, 9.33 3.44 C9.58 3.99, 9.81 4.6, 10.03 5.25 C10.24 5.91, 10.43 6.62, 10.59 7.35 C10.76 8.09, 10.9 8.88, 11.01 9.68 C11.12 10.48, 11.21 11.32, 11.27 12.15 C11.32 12.99, 11.34 14.28, 11.35 14.71 C11.37 15.13, 11.37 14.28, 11.35 14.71" stroke="none" stroke-width="0" fill="#000"></path><path d="M11.35 14.71 C11.35 15.56, 11.32 16.42, 11.27 17.26 C11.21 18.1, 11.12 18.94, 11.01 19.74 C10.9 20.54, 10.76 21.32, 10.59 22.06 C10.43 22.8, 10.24 23.51, 10.03 24.16 C9.81 24.81, 9.58 25.43, 9.33 25.97 C9.07 26.52, 8.8 27.02, 8.51 27.44 C8.23 27.87, 7.93 28.24, 7.62 28.53 C7.31 28.82, 6.99 29.04, 6.66 29.19 C6.34 29.34, 6.01 29.42, 5.68 29.42 C5.35 29.42, 5.01 29.34, 4.69 29.19 C4.37 29.04, 4.04 28.82, 3.74 28.53 C3.43 28.24, 3.12 27.87, 2.84 27.44 C2.55 27.02, 2.28 26.52, 2.03 25.97 C1.78 25.43, 1.54 24.81, 1.33 24.16 C1.12 23.51, 0.92 22.8, 0.76 22.06 C0.6 21.32, 0.45 20.54, 0.34 19.74 C0.23 18.94, 0.14 18.1, 0.09 17.26 C0.03 16.42, 0 15.56, 0 14.71 C0 13.86, 0.03 12.99, 0.09 12.15 C0.14 11.32, 0.23 10.48, 0.34 9.68 C0.45 8.88, 0.6 8.09, 0.76 7.35 C0.92 6.62, 1.12 5.91, 1.33 5.25 C1.54 4.6, 1.78 3.99, 2.03 3.44 C2.28 2.89, 2.55 2.4, 2.84 1.97 C3.12 1.54, 3.43 1.18, 3.74 0.89 C4.04 0.6, 4.37 0.37, 4.69 0.22 C5.01 0.08, 5.35 0, 5.68 0 C6.01 0, 6.34 0.08, 6.66 0.22 C6.99 0.37, 7.31 0.6, 7.62 0.89 C7.93 1.18, 8.23 1.54, 8.51 1.97 C8.8 2.4, 9.07 2.89, 9.33 3.44 C9.58 3.99, 9.81 4.6, 10.03 5.25 C10.24 5.91, 10.43 6.62, 10.59 7.35 C10.76 8.09, 10.9 8.88, 11.01 9.68 C11.12 10.48, 11.21 11.32, 11.27 12.15 C11.32 12.99, 11.34 14.28, 11.35 14.71 C11.37 15.13, 11.37 14.28, 11.35 14.71" stroke="#000000" stroke-width="1" fill="none"></path></g><g stroke-linecap="round" transform="translate(32.29618860750816 34.414260945145884) rotate(369.8539733921081 2.4309082092236167 5.4186166227944454)"><path d="M4.86 5.42 C4.86 5.73, 4.85 6.05, 4.82 6.36 C4.8 6.67, 4.76 6.98, 4.72 7.27 C4.67 7.57, 4.61 7.86, 4.54 8.13 C4.47 8.4, 4.38 8.66, 4.29 8.9 C4.2 9.14, 4.1 9.37, 3.99 9.57 C3.89 9.77, 3.77 9.95, 3.65 10.11 C3.52 10.27, 3.39 10.4, 3.26 10.51 C3.13 10.62, 2.99 10.7, 2.85 10.75 C2.71 10.81, 2.57 10.84, 2.43 10.84 C2.29 10.84, 2.15 10.81, 2.01 10.75 C1.87 10.7, 1.73 10.62, 1.6 10.51 C1.47 10.4, 1.34 10.27, 1.22 10.11 C1.09 9.95, 0.98 9.77, 0.87 9.57 C0.76 9.37, 0.66 9.14, 0.57 8.9 C0.48 8.66, 0.4 8.4, 0.33 8.13 C0.26 7.86, 0.19 7.57, 0.15 7.27 C0.1 6.98, 0.06 6.67, 0.04 6.36 C0.01 6.05, 0 5.73, 0 5.42 C0 5.1, 0.01 4.79, 0.04 4.48 C0.06 4.17, 0.1 3.86, 0.15 3.57 C0.19 3.27, 0.26 2.98, 0.33 2.71 C0.4 2.44, 0.48 2.18, 0.57 1.94 C0.66 1.7, 0.76 1.47, 0.87 1.27 C0.98 1.07, 1.09 0.88, 1.22 0.73 C1.34 0.57, 1.47 0.43, 1.6 0.33 C1.73 0.22, 1.87 0.14, 2.01 0.08 C2.15 0.03, 2.29 0, 2.43 0 C2.57 0, 2.71 0.03, 2.85 0.08 C2.99 0.14, 3.13 0.22, 3.26 0.33 C3.39 0.43, 3.52 0.57, 3.65 0.73 C3.77 0.88, 3.89 1.07, 3.99 1.27 C4.1 1.47, 4.2 1.7, 4.29 1.94 C4.38 2.18, 4.47 2.44, 4.54 2.71 C4.61 2.98, 4.67 3.27, 4.72 3.57 C4.76 3.86, 4.8 4.17, 4.82 4.48 C4.85 4.79, 4.86 5.26, 4.86 5.42 C4.87 5.58, 4.87 5.26, 4.86 5.42" stroke="none" stroke-width="0" fill="#fff"></path><path d="M4.86 5.42 C4.86 5.73, 4.85 6.05, 4.82 6.36 C4.8 6.67, 4.76 6.98, 4.72 7.27 C4.67 7.57, 4.61 7.86, 4.54 8.13 C4.47 8.4, 4.38 8.66, 4.29 8.9 C4.2 9.14, 4.1 9.37, 3.99 9.57 C3.89 9.77, 3.77 9.95, 3.65 10.11 C3.52 10.27, 3.39 10.4, 3.26 10.51 C3.13 10.62, 2.99 10.7, 2.85 10.75 C2.71 10.81, 2.57 10.84, 2.43 10.84 C2.29 10.84, 2.15 10.81, 2.01 10.75 C1.87 10.7, 1.73 10.62, 1.6 10.51 C1.47 10.4, 1.34 10.27, 1.22 10.11 C1.09 9.95, 0.98 9.77, 0.87 9.57 C0.76 9.37, 0.66 9.14, 0.57 8.9 C0.48 8.66, 0.4 8.4, 0.33 8.13 C0.26 7.86, 0.19 7.57, 0.15 7.27 C0.1 6.98, 0.06 6.67, 0.04 6.36 C0.01 6.05, 0 5.73, 0 5.42 C0 5.1, 0.01 4.79, 0.04 4.48 C0.06 4.17, 0.1 3.86, 0.15 3.57 C0.19 3.27, 0.26 2.98, 0.33 2.71 C0.4 2.44, 0.48 2.18, 0.57 1.94 C0.66 1.7, 0.76 1.47, 0.87 1.27 C0.98 1.07, 1.09 0.88, 1.22 0.73 C1.34 0.57, 1.47 0.43, 1.6 0.33 C1.73 0.22, 1.87 0.14, 2.01 0.08 C2.15 0.03, 2.29 0, 2.43 0 C2.57 0, 2.71 0.03, 2.85 0.08 C2.99 0.14, 3.13 0.22, 3.26 0.33 C3.39 0.43, 3.52 0.57, 3.65 0.73 C3.77 0.88, 3.89 1.07, 3.99 1.27 C4.1 1.47, 4.2 1.7, 4.29 1.94 C4.38 2.18, 4.47 2.44, 4.54 2.71 C4.61 2.98, 4.67 3.27, 4.72 3.57 C4.76 3.86, 4.8 4.17, 4.82 4.48 C4.85 4.79, 4.86 5.26, 4.86 5.42 C4.87 5.58, 4.87 5.26, 4.86 5.42" stroke="#000000" stroke-width="1" fill="none"></path></g><g stroke-linecap="round" transform="translate(64.54559554993921 25.963235636780723) rotate(360.747659213025 5.676645985784489 14.70767369044205)"><path d="M11.35 14.71 C11.35 15.56, 11.32 16.42, 11.27 17.26 C11.21 18.1, 11.12 18.94, 11.01 19.74 C10.9 20.54, 10.76 21.32, 10.59 22.06 C10.43 22.8, 10.24 23.51, 10.03 24.16 C9.81 24.81, 9.58 25.43, 9.33 25.97 C9.07 26.52, 8.8 27.02, 8.51 27.44 C8.23 27.87, 7.93 28.24, 7.62 28.53 C7.31 28.82, 6.99 29.04, 6.66 29.19 C6.34 29.34, 6.01 29.42, 5.68 29.42 C5.35 29.42, 5.01 29.34, 4.69 29.19 C4.37 29.04, 4.04 28.82, 3.74 28.53 C3.43 28.24, 3.12 27.87, 2.84 27.44 C2.55 27.02, 2.28 26.52, 2.03 25.97 C1.78 25.43, 1.54 24.81, 1.33 24.16 C1.12 23.51, 0.92 22.8, 0.76 22.06 C0.6 21.32, 0.45 20.54, 0.34 19.74 C0.23 18.94, 0.14 18.1, 0.09 17.26 C0.03 16.42, 0 15.56, 0 14.71 C0 13.86, 0.03 12.99, 0.09 12.15 C0.14 11.32, 0.23 10.48, 0.34 9.68 C0.45 8.88, 0.6 8.09, 0.76 7.35 C0.92 6.62, 1.12 5.91, 1.33 5.25 C1.54 4.6, 1.78 3.99, 2.03 3.44 C2.28 2.89, 2.55 2.4, 2.84 1.97 C3.12 1.54, 3.43 1.18, 3.74 0.89 C4.04 0.6, 4.37 0.37, 4.69 0.22 C5.01 0.08, 5.35 0, 5.68 0 C6.01 0, 6.34 0.08, 6.66 0.22 C6.99 0.37, 7.31 0.6, 7.62 0.89 C7.93 1.18, 8.23 1.54, 8.51 1.97 C8.8 2.4, 9.07 2.89, 9.33 3.44 C9.58 3.99, 9.81 4.6, 10.03 5.25 C10.24 5.91, 10.43 6.62, 10.59 7.35 C10.76 8.09, 10.9 8.88, 11.01 9.68 C11.12 10.48, 11.21 11.32, 11.27 12.15 C11.32 12.99, 11.34 14.28, 11.35 14.71 C11.37 15.13, 11.37 14.28, 11.35 14.71" stroke="none" stroke-width="0" fill="#000"></path><path d="M11.35 14.71 C11.35 15.56, 11.32 16.42, 11.27 17.26 C11.21 18.1, 11.12 18.94, 11.01 19.74 C10.9 20.54, 10.76 21.32, 10.59 22.06 C10.43 22.8, 10.24 23.51, 10.03 24.16 C9.81 24.81, 9.58 25.43, 9.33 25.97 C9.07 26.52, 8.8 27.02, 8.51 27.44 C8.23 27.87, 7.93 28.24, 7.62 28.53 C7.31 28.82, 6.99 29.04, 6.66 29.19 C6.34 29.34, 6.01 29.42, 5.68 29.42 C5.35 29.42, 5.01 29.34, 4.69 29.19 C4.37 29.04, 4.04 28.82, 3.74 28.53 C3.43 28.24, 3.12 27.87, 2.84 27.44 C2.55 27.02, 2.28 26.52, 2.03 25.97 C1.78 25.43, 1.54 24.81, 1.33 24.16 C1.12 23.51, 0.92 22.8, 0.76 22.06 C0.6 21.32, 0.45 20.54, 0.34 19.74 C0.23 18.94, 0.14 18.1, 0.09 17.26 C0.03 16.42, 0 15.56, 0 14.71 C0 13.86, 0.03 12.99, 0.09 12.15 C0.14 11.32, 0.23 10.48, 0.34 9.68 C0.45 8.88, 0.6 8.09, 0.76 7.35 C0.92 6.62, 1.12 5.91, 1.33 5.25 C1.54 4.6, 1.78 3.99, 2.03 3.44 C2.28 2.89, 2.55 2.4, 2.84 1.97 C3.12 1.54, 3.43 1.18, 3.74 0.89 C4.04 0.6, 4.37 0.37, 4.69 0.22 C5.01 0.08, 5.35 0, 5.68 0 C6.01 0, 6.34 0.08, 6.66 0.22 C6.99 0.37, 7.31 0.6, 7.62 0.89 C7.93 1.18, 8.23 1.54, 8.51 1.97 C8.8 2.4, 9.07 2.89, 9.33 3.44 C9.58 3.99, 9.81 4.6, 10.03 5.25 C10.24 5.91, 10.43 6.62, 10.59 7.35 C10.76 8.09, 10.9 8.88, 11.01 9.68 C11.12 10.48, 11.21 11.32, 11.27 12.15 C11.32 12.99, 11.34 14.28, 11.35 14.71 C11.37 15.13, 11.37 14.28, 11.35 14.71" stroke="#000000" stroke-width="1" fill="none"></path></g><g stroke-linecap="round" transform="translate(66.17135631875135 29.29597157718615) rotate(369.8539733921081 2.4309082092236167 5.4186166227944454)"><path d="M4.86 5.42 C4.86 5.73, 4.85 6.05, 4.82 6.36 C4.8 6.67, 4.76 6.98, 4.72 7.27 C4.67 7.57, 4.61 7.86, 4.54 8.13 C4.47 8.4, 4.38 8.66, 4.29 8.9 C4.2 9.14, 4.1 9.37, 3.99 9.57 C3.89 9.77, 3.77 9.95, 3.65 10.11 C3.52 10.27, 3.39 10.4, 3.26 10.51 C3.13 10.62, 2.99 10.7, 2.85 10.75 C2.71 10.81, 2.57 10.84, 2.43 10.84 C2.29 10.84, 2.15 10.81, 2.01 10.75 C1.87 10.7, 1.73 10.62, 1.6 10.51 C1.47 10.4, 1.34 10.27, 1.22 10.11 C1.09 9.95, 0.98 9.77, 0.87 9.57 C0.76 9.37, 0.66 9.14, 0.57 8.9 C0.48 8.66, 0.4 8.4, 0.33 8.13 C0.26 7.86, 0.19 7.57, 0.15 7.27 C0.1 6.98, 0.06 6.67, 0.04 6.36 C0.01 6.05, 0 5.73, 0 5.42 C0 5.1, 0.01 4.79, 0.04 4.48 C0.06 4.17, 0.1 3.86, 0.15 3.57 C0.19 3.27, 0.26 2.98, 0.33 2.71 C0.4 2.44, 0.48 2.18, 0.57 1.94 C0.66 1.7, 0.76 1.47, 0.87 1.27 C0.98 1.07, 1.09 0.88, 1.22 0.73 C1.34 0.57, 1.47 0.43, 1.6 0.33 C1.73 0.22, 1.87 0.14, 2.01 0.08 C2.15 0.03, 2.29 0, 2.43 0 C2.57 0, 2.71 0.03, 2.85 0.08 C2.99 0.14, 3.13 0.22, 3.26 0.33 C3.39 0.43, 3.52 0.57, 3.65 0.73 C3.77 0.88, 3.89 1.07, 3.99 1.27 C4.1 1.47, 4.2 1.7, 4.29 1.94 C4.38 2.18, 4.47 2.44, 4.54 2.71 C4.61 2.98, 4.67 3.27, 4.72 3.57 C4.76 3.86, 4.8 4.17, 4.82 4.48 C4.85 4.79, 4.86 5.26, 4.86 5.42 C4.87 5.58, 4.87 5.26, 4.86 5.42" stroke="none" stroke-width="0" fill="#fff"></path><path d="M4.86 5.42 C4.86 5.73, 4.85 6.05, 4.82 6.36 C4.8 6.67, 4.76 6.98, 4.72 7.27 C4.67 7.57, 4.61 7.86, 4.54 8.13 C4.47 8.4, 4.38 8.66, 4.29 8.9 C4.2 9.14, 4.1 9.37, 3.99 9.57 C3.89 9.77, 3.77 9.95, 3.65 10.11 C3.52 10.27, 3.39 10.4, 3.26 10.51 C3.13 10.62, 2.99 10.7, 2.85 10.75 C2.71 10.81, 2.57 10.84, 2.43 10.84 C2.29 10.84, 2.15 10.81, 2.01 10.75 C1.87 10.7, 1.73 10.62, 1.6 10.51 C1.47 10.4, 1.34 10.27, 1.22 10.11 C1.09 9.95, 0.98 9.77, 0.87 9.57 C0.76 9.37, 0.66 9.14, 0.57 8.9 C0.48 8.66, 0.4 8.4, 0.33 8.13 C0.26 7.86, 0.19 7.57, 0.15 7.27 C0.1 6.98, 0.06 6.67, 0.04 6.36 C0.01 6.05, 0 5.73, 0 5.42 C0 5.1, 0.01 4.79, 0.04 4.48 C0.06 4.17, 0.1 3.86, 0.15 3.57 C0.19 3.27, 0.26 2.98, 0.33 2.71 C0.4 2.44, 0.48 2.18, 0.57 1.94 C0.66 1.7, 0.76 1.47, 0.87 1.27 C0.98 1.07, 1.09 0.88, 1.22 0.73 C1.34 0.57, 1.47 0.43, 1.6 0.33 C1.73 0.22, 1.87 0.14, 2.01 0.08 C2.15 0.03, 2.29 0, 2.43 0 C2.57 0, 2.71 0.03, 2.85 0.08 C2.99 0.14, 3.13 0.22, 3.26 0.33 C3.39 0.43, 3.52 0.57, 3.65 0.73 C3.77 0.88, 3.89 1.07, 3.99 1.27 C4.1 1.47, 4.2 1.7, 4.29 1.94 C4.38 2.18, 4.47 2.44, 4.54 2.71 C4.61 2.98, 4.67 3.27, 4.72 3.57 C4.76 3.86, 4.8 4.17, 4.82 4.48 C4.85 4.79, 4.86 5.26, 4.86 5.42 C4.87 5.58, 4.87 5.26, 4.86 5.42" stroke="#000000" stroke-width="1" fill="none"></path></g><g stroke-linecap="round"><g transform="translate(55.601346510891744 99.82415895364738) rotate(343.13155176511515 4.102440529998148 5.675514278052219)" fill-rule="evenodd"><path d="M0 0 L0 11.35 L8.2 11.16 L7.68 1.14" stroke="none" stroke-width="0" fill="#fff" fill-rule="evenodd"></path><path d="M0 0 C0 2.58, 0 5.15, 0 11.35 M0 0 C0 2.73, 0 5.46, 0 11.35 M0 11.35 C3.15 11.28, 6.29 11.21, 8.2 11.16 M0 11.35 C2.48 11.29, 4.96 11.24, 8.2 11.16 M8.2 11.16 C8.08 8.78, 7.95 6.39, 7.68 1.14 M8.2 11.16 C8.09 8.97, 7.97 6.77, 7.68 1.14 M7.68 1.14 C5.32 0.79, 2.97 0.44, 0 0 M7.68 1.14 C6.02 0.89, 4.36 0.64, 0 0" stroke="#000000" stroke-width="1" fill="none"></path></g></g><g stroke-linecap="round"><g transform="translate(58.16294795369413 110.9223562059135) rotate(339.67493259307446 2.7966620019933544 2.248295849521355)"><path d="M0 0 C-3.05 -1.08, -14.33 -6.74, -18.28 -6.45 C-22.22 -6.16, -28.49 -1.04, -23.65 1.72 C-18.81 4.48, 1.97 8.71, 10.75 10.11 C19.53 11.5, 26.13 10.93, 29.03 10.11 C31.93 9.28, 31.57 6.77, 28.17 5.16 C24.76 3.55, 11.86 1.22, 8.6 0.43 M0 0 C-3.05 -1.08, -14.33 -6.74, -18.28 -6.45 C-22.22 -6.16, -28.49 -1.04, -23.65 1.72 C-18.81 4.48, 1.97 8.71, 10.75 10.11 C19.53 11.5, 26.13 10.93, 29.03 10.11 C31.93 9.28, 31.57 6.77, 28.17 5.16 C24.76 3.55, 11.86 1.22, 8.6 0.43" stroke="#000000" stroke-width="1" fill="none"></path></g></g><g stroke-linecap="round"><g transform="translate(45.77362524509226 71.79147565347125) rotate(339.67493259307446 10.837233245588777 1.290146814951072)"><path d="M0 0 C3.61 0.43, 18.06 2.15, 21.67 2.58 M0 0 C3.61 0.43, 18.06 2.15, 21.67 2.58" stroke="#000000" stroke-width="1" fill="none"></path></g></g></svg>