<?xml version="1.0" standalone="no"?>
<!DOCTYPE svg PUBLIC "-//W3C//DTD SVG 20010904//EN"
 "http://www.w3.org/TR/2001/REC-SVG-20010904/DTD/svg10.dtd">
<svg version="1.0" xmlns="http://www.w3.org/2000/svg"
 width="792.000000pt" height="792.000000pt" viewBox="0 0 792.000000 792.000000"
 preserveAspectRatio="xMidYMid meet">
<metadata>
Created by potrace 1.14, written by Peter Selinger 2001-2017
</metadata>
<g transform="translate(0.000000,792.000000) scale(0.100000,-0.100000)"
fill="#000000" stroke="none">
<path d="M5065 7354 c-143 -7 -393 -34 -690 -75 -354 -49 -441 -59 -526 -59
-36 0 -100 -9 -142 -19 -93 -24 -235 -48 -482 -80 -766 -102 -1169 -205 -1470
-377 -261 -150 -401 -317 -483 -575 -114 -358 -174 -878 -174 -1509 0 -882
122 -1594 357 -2075 156 -320 317 -482 589 -590 176 -71 442 -126 746 -156
130 -13 586 -18 819 -9 l133 5 89 -290 c48 -159 88 -294 89 -299 0 -5 -52 -6
-117 -2 -65 3 -266 9 -448 12 -477 9 -550 -7 -695 -154 -90 -92 -154 -207
-165 -297 -14 -108 42 -189 153 -221 191 -57 1096 38 2052 215 498 92 962 260
1159 419 101 82 102 189 2 255 -126 84 -324 77 -1076 -38 -121 -18 -243 -36
-271 -40 l-50 -6 -57 158 c-30 87 -72 202 -91 255 l-35 97 47 6 c26 4 133 22
237 41 837 151 1506 414 1822 717 238 229 368 573 424 1132 26 260 14 780 -27
1145 -90 803 -303 1614 -521 1985 -133 225 -367 361 -709 409 -114 16 -353 26
-489 20z m315 -74 c386 -28 636 -132 778 -325 198 -268 428 -1061 531 -1825
110 -817 82 -1518 -79 -1975 -67 -189 -150 -325 -270 -439 -127 -122 -341
-253 -572 -352 l-83 -35 29 30 c24 26 30 42 34 90 4 49 0 66 -18 96 -26 43
-85 75 -137 75 -35 0 -30 5 82 63 349 182 507 356 611 675 137 419 153 1069
43 1802 -79 524 -225 1046 -377 1345 -46 90 -70 124 -132 185 -240 241 -656
296 -1425 190 -356 -49 -444 -60 -511 -60 -39 0 -106 -9 -150 -20 -43 -11
-250 -45 -459 -75 -404 -58 -595 -94 -777 -146 -443 -125 -714 -320 -817 -588
-155 -403 -220 -1293 -145 -2006 90 -860 316 -1395 670 -1582 144 -76 414
-151 612 -169 39 -4 72 -9 72 -11 0 -3 -9 -16 -20 -30 -51 -65 -46 -156 12
-212 57 -56 126 -63 196 -21 72 44 95 144 49 211 l-23 34 271 1 c332 2 586 22
930 75 402 61 877 186 1157 304 98 41 107 43 52 10 -121 -72 -86 -263 53 -290
l38 -7 -65 -25 c-184 -69 -568 -174 -830 -227 -592 -119 -1230 -174 -1718
-147 -130 8 -259 17 -287 20 l-50 7 35 16 c108 47 133 181 49 260 -53 51 -110
59 -176 27 -36 -18 -54 -35 -70 -69 -13 -24 -23 -56 -23 -70 0 -45 42 -113 85
-138 22 -13 31 -21 20 -18 -11 3 -38 8 -60 11 -100 16 -279 59 -372 90 -239
80 -382 185 -513 381 -242 358 -402 989 -450 1779 -13 209 -13 738 0 935 34
534 112 954 217 1164 136 275 446 469 963 602 226 58 407 89 1020 175 124 17
268 42 320 55 58 15 124 24 170 24 77 0 196 13 450 50 371 53 585 75 875 88
22 1 105 -3 185 -8z m-91 -435 c221 -32 370 -95 480 -203 60 -58 77 -85 134
-202 338 -699 523 -2094 376 -2825 -46 -229 -108 -390 -199 -525 -258 -381
-1171 -700 -2275 -796 -245 -21 -807 -15 -985 10 -350 50 -580 132 -713 255
-268 249 -426 718 -509 1511 -18 171 -18 949 0 1120 36 349 78 569 141 753 61
176 195 316 411 426 242 125 533 201 1035 271 388 55 502 73 565 89 38 10 71
16 74 14 7 -8 208 14 446 47 428 60 507 67 735 68 112 1 220 -4 284 -13z m350
-4310 c49 -25 58 -96 17 -134 -55 -52 -146 -13 -146 62 1 69 66 105 129 72z
m-2941 -391 c29 -33 28 -76 -2 -111 -19 -22 -33 -28 -64 -28 -71 0 -110 62
-77 125 29 56 100 63 143 14z m353 7 c56 -56 23 -143 -55 -143 -69 0 -109 70
-75 133 24 45 89 50 130 10z m1253 -527 c48 -135 84 -249 80 -254 -17 -14
-378 -130 -385 -122 -3 4 -32 93 -64 197 -31 105 -69 231 -85 280 -24 79 -25
90 -11 93 69 13 322 50 346 51 l31 1 88 -246z m1446 -180 c98 -29 128 -65 105
-121 -42 -100 -434 -278 -840 -381 -222 -57 -658 -136 -1075 -196 -743 -107
-1204 -136 -1308 -82 -37 19 -72 70 -72 104 0 78 79 221 167 303 103 96 154
109 448 116 150 3 331 -1 518 -11 l288 -16 247 79 c144 46 283 84 332 91 47 7
168 25 270 40 177 27 421 60 580 79 128 15 281 13 340 -5z"/>
<path d="M2240 2308 c-61 -31 -90 -77 -90 -142 0 -118 118 -191 227 -140 107
52 112 215 8 275 -52 30 -95 32 -145 7z m129 -84 c47 -60 10 -144 -64 -144
-74 0 -111 84 -64 144 16 21 29 26 64 26 35 0 48 -5 64 -26z"/>
<path d="M4690 6387 c-19 -6 -59 -35 -88 -64 -90 -90 -165 -271 -208 -508 -26
-141 -27 -577 -1 -712 38 -201 99 -359 173 -450 47 -58 131 -98 185 -89 59 9
90 28 144 88 107 119 177 327 210 621 56 502 -71 1006 -279 1107 -46 22 -82
24 -136 7z m44 -307 c18 -30 21 -51 20 -160 0 -138 -19 -213 -74 -300 -77
-119 -141 -74 -148 104 -5 109 10 190 52 282 35 74 76 117 110 112 11 -2 29
-19 40 -38z"/>
<path d="M2645 6071 c-93 -42 -184 -185 -239 -374 -150 -515 -52 -1243 188
-1405 96 -64 210 -35 290 75 107 147 172 373 196 681 14 176 3 379 -31 547
-72 366 -233 555 -404 476z m62 -304 c28 -50 25 -239 -4 -333 -26 -82 -77
-163 -113 -181 -21 -10 -28 -9 -46 8 -35 33 -47 97 -42 216 7 153 59 285 127
326 32 19 54 9 78 -36z"/>
<path d="M4345 3674 c-915 -224 -1040 -252 -1057 -237 -23 20 -58 8 -58 -20 1
-28 358 -384 453 -452 273 -192 399 -116 793 480 77 116 141 216 142 223 6 23
-29 52 -62 51 -17 0 -112 -21 -211 -45z m165 -40 c0 -14 -271 -414 -328 -486
-75 -92 -157 -169 -208 -193 -101 -48 -248 38 -494 291 l-115 118 90 22 c84
20 176 42 608 145 94 23 231 56 302 74 149 38 145 37 145 29z"/>
</g>
</svg>
